<?xml version="1.0" encoding="UTF-8"?>
<svg id="Capa_1" data-name="Capa 1" xmlns="http://www.w3.org/2000/svg" xmlns:xlink="http://www.w3.org/1999/xlink" viewBox="0 0 326.7 329.5">
  <defs>
    <style>
      .cls-1, .cls-2 {
        stroke-width: 0px;
      }

      .cls-2, .cls-3 {
        fill: none;
      }

      .cls-4 {
        clip-path: url(#clippath-1);
      }

      .cls-3 {
        stroke: #000;
        stroke-miterlimit: 10;
        stroke-width: .6px;
      }

      .cls-5 {
        clip-path: url(#clippath);
      }
    </style>
    <clipPath id="clippath">
      <rect class="cls-2" x="110.1" y="34.7" width="176.1" height="187.5" transform="translate(-32.3 180.1) rotate(-45.6)"/>
    </clipPath>
    <clipPath id="clippath-1">
      <rect class="cls-2" x="110.1" y="34.7" width="176.1" height="187.5" transform="translate(-32.3 180.1) rotate(-45.6)"/>
    </clipPath>
  </defs>
  <g class="cls-5">
    <g class="cls-4">
      <path class="cls-1" d="m248.3,94.4l2.2,52.6c.1,2.6-1.9,4.7-4.6,4.7-2.6,0-4.9-2.2-5-4.9l-2.2-52.6c-.1-2.6,1.9-4.7,4.6-4.7,2.6,0,4.9,2.2,5,4.9"/>
      <path class="cls-3" d="m248.3,94.4l2.2,52.6c.1,2.6-1.9,4.7-4.6,4.7-2.6,0-4.9-2.2-5-4.9l-2.2-52.6c-.1-2.6,1.9-4.7,4.6-4.7,2.6,0,4.9,2.2,5,4.9Z"/>
      <path class="cls-1" d="m190.7,97.6l52.6,1.1c2.6,0,4.7-2,4.6-4.7-.1-2.6-2.3-4.8-5-4.9l-52.6-1.1c-2.6,0-4.7,2-4.6,4.7.1,2.6,2.3,4.8,5,4.9"/>
      <path class="cls-3" d="m190.7,97.6l52.6,1.1c2.6,0,4.7-2,4.6-4.7-.1-2.6-2.3-4.8-5-4.9l-52.6-1.1c-2.6,0-4.7,2-4.6,4.7.1,2.6,2.3,4.8,5,4.9Z"/>
      <path class="cls-1" d="m238.9,105.4l-68.6,70.1c-1.7,1.7-4.5,1.6-6.3-.1s-1.9-4.6-.3-6.3l68.6-70.1c1.7-1.7,4.5-1.6,6.3.1s1.9,4.6.3,6.3"/>
      <path class="cls-3" d="m238.9,105.4l-68.6,70.1c-1.7,1.7-4.5,1.6-6.3-.1s-1.9-4.6-.3-6.3l68.6-70.1c1.7-1.7,4.5-1.6,6.3.1s1.9,4.6.3,6.3Z"/>
    </g>
  </g>
  <path class="cls-1" d="m109.5,103.5v114.5h128.5v69.3c0,15-12.2,27.2-27.2,27.2H42.2c-15,0-27.2-12.2-27.2-27.2v-156.5c0-15,12.2-27.2,27.2-27.2h67.3m15-15H42.2C18.9,88.5,0,107.4,0,130.7v156.5c0,23.3,18.9,42.2,42.2,42.2h168.5c23.3,0,42.2-18.9,42.2-42.2v-84.3H124.5v-114.5h0Z"/>
</svg>