<svg id="eWIKhwlfLse1" xmlns="http://www.w3.org/2000/svg" xmlns:xlink="http://www.w3.org/1999/xlink" viewBox="0 0 50 50" shape-rendering="geometricPrecision" text-rendering="geometricPrecision"><rect width="44.72106" height="6.74292" rx="0" ry="0" transform="matrix(.623063 0 0 0.696911 11.067981 22.650392)" stroke="#000"/><rect width="44.72106" height="6.74292" rx="0" ry="0" transform="matrix(0 0.623063-.696911 0 27.349608 11.067981)" stroke="#000"/><path d="M25,11.067981h6.507444L25.205323,5.470679L25,11.067981Z" stroke="#000" stroke-width="0.5"/><path d="M25,11.067981h6.507444L25.205323,5.470679L25,11.067981Z" transform="matrix(1 0 0-1 14.346729 36.523052)" stroke="#000" stroke-width="0.5"/><path d="M25,11.067981h6.507444L25.205323,5.470679L25,11.067981Z" transform="matrix(-1 0 0-1 36.067981 36.295516)" stroke="#000" stroke-width="0.5"/><path d="M25,11.067981h6.507444L25.205323,5.470679L25,11.067981Z" transform="matrix(-1 0 0 1 36.067981 13.704484)" stroke="#000" stroke-width="0.5"/><path d="M25,11.067981h6.507444L25.205323,5.470679L25,11.067981Z" transform="translate(14.346729 13.932019)" stroke="#000" stroke-width="0.5"/><path d="M25,11.067981h6.507444L25.205323,5.470679L25,11.067981Z" transform="matrix(1 0 0-1 0 50)" stroke="#000" stroke-width="0.5"/><path d="M25,11.067981h6.507444L25.205323,5.470679L25,11.067981Z" transform="matrix(-1 0 0-1 50 50)" stroke="#000" stroke-width="0.5"/><path d="M25,11.067981h6.507444L25.205323,5.470679L25,11.067981Z" transform="matrix(-1 0 0 1 50 0)" stroke="#000" stroke-width="0.5"/></svg>
